<svg width="29" height="29" viewBox="0 0 29 29" fill="none" xmlns="http://www.w3.org/2000/svg">
<path d="M14.5003 2.41669C9.82408 2.41669 6.04199 6.19877 6.04199 10.875C6.04199 17.2188 14.5003 26.5834 14.5003 26.5834C14.5003 26.5834 22.9587 17.2188 22.9587 10.875C22.9587 6.19877 19.1766 2.41669 14.5003 2.41669ZM8.45866 10.875C8.45866 7.54002 11.1653 4.83335 14.5003 4.83335C17.8353 4.83335 20.542 7.54002 20.542 10.875C20.542 14.355 17.062 19.5629 14.5003 22.8134C11.987 19.5871 8.45866 14.3188 8.45866 10.875Z" fill="#2863DF"/>
<path d="M14.5003 13.8959C16.1687 13.8959 17.5212 12.5434 17.5212 10.875C17.5212 9.20666 16.1687 7.85419 14.5003 7.85419C12.832 7.85419 11.4795 9.20666 11.4795 10.875C11.4795 12.5434 12.832 13.8959 14.5003 13.8959Z" fill="#2863DF"/>
</svg>
