<svg width="32" height="46" viewBox="0 0 32 46" fill="none" xmlns="http://www.w3.org/2000/svg">
<path d="M28.9018 25.087H28.9131C28.9131 25.087 24.6833 31.2914 21.1267 35.9026C18.0526 39.8855 17.155 43.2962 16.8969 44.9455C16.796 45.5514 16.3023 46.0002 15.7077 46.0002C15.113 46.0002 14.6194 45.5514 14.5184 44.9455C14.2604 43.2962 13.3628 39.8855 10.2886 35.9026C9.81742 35.2855 9.33498 34.646 8.85254 33.9953L20.4647 20.1952L29.8106 9.11035C30.8428 11.2757 31.415 13.6991 31.415 16.2684C31.415 19.5221 30.4838 22.5401 28.9018 25.087Z" fill="#33CC99"/>
<path d="M20.465 20.1951L8.8528 33.9951C5.6889 29.7541 2.50255 25.0868 2.50255 25.0868H2.51377C2.17719 24.5483 1.87426 23.9985 1.61621 23.4263L10.9509 12.3414C10.0645 13.4073 9.5372 14.7761 9.5372 16.2683C9.5372 19.679 12.2972 22.439 15.7079 22.439C17.6265 22.439 19.3431 21.5639 20.465 20.1951Z" fill="#33CC99"/>
<path d="M20.6431 0.830245L11.028 12.2517L3.66797 5.83415C6.54017 2.26634 10.8709 0 15.7065 0C17.4343 0 19.0948 0.291707 20.6431 0.830245Z" fill="#33CC99"/>
<path d="M11.0288 12.2517L10.9503 12.3414L1.61561 23.4263C0.583415 21.261 0 18.8375 0 16.2683C0 12.2966 1.38 8.65021 3.66879 5.83411L11.0288 12.2517Z" fill="#33CC99"/>
<path d="M20.4644 20.1951C21.3507 19.1292 21.878 17.7605 21.878 16.2683C21.878 12.8575 19.118 10.0975 15.7073 10.0975C13.7887 10.0975 12.0721 10.9727 10.9502 12.3414L20.6439 0.8302C24.6717 2.19898 27.9702 5.21704 29.8102 9.11021L20.4644 20.1951Z" fill="#33CC99"/>
</svg>
