<svg width="29" height="29" viewBox="0 0 29 29" fill="none" xmlns="http://www.w3.org/2000/svg">
<path d="M14.5003 2.41666C9.82408 2.41666 6.04199 6.19874 6.04199 10.875C6.04199 17.2187 14.5003 26.5833 14.5003 26.5833C14.5003 26.5833 22.9587 17.2187 22.9587 10.875C22.9587 6.19874 19.1766 2.41666 14.5003 2.41666ZM8.45866 10.875C8.45866 7.53999 11.1653 4.83332 14.5003 4.83332C17.8353 4.83332 20.542 7.53999 20.542 10.875C20.542 14.355 17.062 19.5629 14.5003 22.8133C11.987 19.5871 8.45866 14.3187 8.45866 10.875Z" fill="#33CC99"/>
<path d="M14.5003 13.8958C16.1687 13.8958 17.5212 12.5434 17.5212 10.875C17.5212 9.20663 16.1687 7.85416 14.5003 7.85416C12.832 7.85416 11.4795 9.20663 11.4795 10.875C11.4795 12.5434 12.832 13.8958 14.5003 13.8958Z" fill="#33CC99"/>
</svg>
