<svg width="29" height="29" viewBox="0 0 29 29" fill="none" xmlns="http://www.w3.org/2000/svg">
<rect width="29" height="29" rx="14.5" fill="#CF5600"/>
<path fill-rule="evenodd" clip-rule="evenodd" d="M6.56397 14.3469C10.791 12.5053 13.6097 11.2912 15.0201 10.7045C19.0469 9.02966 19.8836 8.73871 20.429 8.72911C20.5489 8.72699 20.8171 8.75672 20.9908 8.89769C21.1375 9.01672 21.1779 9.17751 21.1972 9.29037C21.2165 9.40322 21.2406 9.6603 21.2215 9.86118C21.0032 12.154 20.059 17.718 19.5787 20.2859C19.3754 21.3725 18.9752 21.7369 18.5877 21.7725C17.7457 21.85 17.1063 21.216 16.2907 20.6814C15.0145 19.8449 14.2936 19.3241 13.0548 18.5078C11.6232 17.5644 12.5512 17.0459 13.3671 16.1985C13.5806 15.9767 17.2907 12.6021 17.3625 12.296C17.3715 12.2577 17.3798 12.115 17.295 12.0397C17.2102 11.9643 17.0851 11.9901 16.9948 12.0106C16.8668 12.0396 14.8281 13.3871 10.8786 16.0531C10.2999 16.4505 9.77578 16.6441 9.30616 16.634C8.78843 16.6228 7.79254 16.3412 7.05219 16.1006C6.14413 15.8054 5.42242 15.6493 5.48526 15.148C5.51799 14.8869 5.87756 14.6199 6.56397 14.3469Z" fill="white"/>
</svg>
