<svg width="41" height="41" viewBox="0 0 41 41" fill="none" xmlns="http://www.w3.org/2000/svg">
<path d="M37.5834 8.84925L18.0913 28.3584L10.848 21.1151L13.2567 18.7063L18.0913 23.5409L35.1747 6.45758L37.5834 8.84925ZM33.808 17.4592C34.0301 18.433 34.1667 19.458 34.1667 20.5001C34.1667 28.0509 28.0509 34.1667 20.5001 34.1667C12.9492 34.1667 6.83341 28.0509 6.83341 20.5001C6.83341 12.9492 12.9492 6.83341 20.5001 6.83341C23.1992 6.83341 25.6934 7.61925 27.8117 8.96883L30.2717 6.50883C27.5042 4.56133 24.1388 3.41675 20.5001 3.41675C11.0701 3.41675 3.41675 11.0701 3.41675 20.5001C3.41675 29.9301 11.0701 37.5834 20.5001 37.5834C29.9301 37.5834 37.5834 29.9301 37.5834 20.5001C37.5834 18.4672 37.2076 16.5197 36.5584 14.7088L33.808 17.4592Z" fill="#030303"/>
</svg>
