<svg width="60" height="60" viewBox="0 0 60 60" fill="none" xmlns="http://www.w3.org/2000/svg">
<path d="M8.75 46.25V18.75H48.75V26.975C50.55 27.525 52.25 28.325 53.75 29.4V18.75C53.75 15.975 51.525 13.75 48.75 13.75H38.75V8.75C38.75 5.975 36.525 3.75 33.75 3.75H23.75C20.975 3.75 18.75 5.975 18.75 8.75V13.75H8.75C5.975 13.75 3.775 15.975 3.775 18.75L3.75 46.25C3.75 49.025 5.975 51.25 8.75 51.25H27.95C27.2 49.7 26.7 48.025 26.45 46.25H8.75ZM23.75 8.75H33.75V13.75H23.75V8.75Z" fill="#1D1D1D"/>
<path d="M43.75 31.25C36.85 31.25 31.25 36.85 31.25 43.75C31.25 50.65 36.85 56.25 43.75 56.25C50.65 56.25 56.25 50.65 56.25 43.75C56.25 36.85 50.65 31.25 43.75 31.25ZM47.875 49.625L42.5 44.25V36.25H45V43.225L49.625 47.85L47.875 49.625Z" fill="#1D1D1D"/>
</svg>
