<svg width="60" height="60" viewBox="0 0 60 60" fill="none" xmlns="http://www.w3.org/2000/svg">
<g clip-path="url(#clip0_417_4015)">
<path d="M41.4 22.1423L19.05 0L15.525 3.49224L21.475 9.38695L8.6 22.1423C7.125 23.6036 7.125 25.9565 8.6 27.3931L22.35 41.0153C23.075 41.7335 24.05 42.1051 25 42.1051C25.95 42.1051 26.925 41.7335 27.65 41.0153L41.4 27.3931C42.875 25.9565 42.875 23.6036 41.4 22.1423ZM13.025 24.7677L25 12.904L36.975 24.7677H13.025ZM47.5 28.4828C47.5 28.4828 42.5 33.8574 42.5 37.1515C42.5 39.876 44.75 42.1051 47.5 42.1051C50.25 42.1051 52.5 39.876 52.5 37.1515C52.5 33.8574 47.5 28.4828 47.5 28.4828ZM5 49.5354H55V59.4424H5V49.5354Z" fill="#1D1D1D"/>
</g>
<defs>
<clipPath id="clip0_417_4015">
<rect width="60" height="59.4424" fill="white"/>
</clipPath>
</defs>
</svg>
