<svg width="37" height="32" viewBox="0 0 37 32" fill="none" xmlns="http://www.w3.org/2000/svg">
<path d="M10.8757 25.5572C11.4204 26.4247 12.3699 26.9544 13.3942 26.962L18.5 27L23.6058 26.962C24.6301 26.9544 25.5796 26.4247 26.1243 25.5572L28.6715 21.5L31.06 17.5533C31.6379 16.5984 31.6379 15.4016 31.06 14.4467L28.6715 10.5L26.1243 6.44278C25.5796 5.5753 24.6301 5.04564 23.6058 5.03801L18.5 5L13.3942 5.03801C12.3699 5.04564 11.4204 5.5753 10.8757 6.44278L8.32853 10.5L5.94002 14.4467C5.36213 15.4016 5.36213 16.5984 5.94002 17.5533L8.32853 21.5L10.8757 25.5572Z" fill="#E68200"/>
<path d="M14.1602 16.0297L23.2636 16.2631M23.2636 16.2631L19.3733 12.3728M23.2636 16.2631L19.4071 20.1197" stroke="black"/>
</svg>
