<svg width="30" height="30" viewBox="0 0 30 30" fill="none" xmlns="http://www.w3.org/2000/svg">
<path d="M15.0003 2.9165C8.33033 2.9165 2.91699 8.32984 2.91699 14.9998C2.91699 21.6698 8.33033 27.0832 15.0003 27.0832H21.042V24.6665H15.0003C9.75616 24.6665 5.33366 20.244 5.33366 14.9998C5.33366 9.75567 9.75616 5.33317 15.0003 5.33317C20.2445 5.33317 24.667 9.75567 24.667 14.9998V16.7278C24.667 17.6823 23.8091 18.6248 22.8545 18.6248C21.8999 18.6248 21.042 17.6823 21.042 16.7278V14.9998C21.042 11.6648 18.3353 8.95817 15.0003 8.95817C11.6653 8.95817 8.95866 11.6648 8.95866 14.9998C8.95866 18.3348 11.6653 21.0415 15.0003 21.0415C16.6678 21.0415 18.1903 20.3648 19.2778 19.2653C20.0632 20.3407 21.4166 21.0415 22.8545 21.0415C25.2349 21.0415 27.0837 19.1082 27.0837 16.7278V14.9998C27.0837 8.32984 21.6703 2.9165 15.0003 2.9165ZM15.0003 18.6248C12.9945 18.6248 11.3753 17.0057 11.3753 14.9998C11.3753 12.994 12.9945 11.3748 15.0003 11.3748C17.0062 11.3748 18.6253 12.994 18.6253 14.9998C18.6253 17.0057 17.0062 18.6248 15.0003 18.6248Z" fill="#CF5600"/>
</svg>
