<svg width="40" height="34" viewBox="0 0 40 34" fill="none" xmlns="http://www.w3.org/2000/svg">
<path d="M33.1332 25.4962C33.8665 24.5365 34.2998 23.4259 34.2998 22.2194C34.2998 18.8055 30.9498 16.0498 26.7998 16.0498C22.6498 16.0498 19.2998 18.8055 19.2998 22.2194C19.2998 25.6333 22.6498 28.3891 26.7832 28.3891C28.2498 28.3891 29.6165 28.0326 30.7665 27.4294L35.9665 31.707L38.3332 29.7601L33.1332 25.4962ZM26.7998 25.647C24.4998 25.647 22.6332 24.1115 22.6332 22.2194C22.6332 20.3274 24.4998 18.7918 26.7998 18.7918C29.0998 18.7918 30.9665 20.3274 30.9665 22.2194C30.9665 24.1115 29.0998 25.647 26.7998 25.647ZM26.1998 13.9932C24.9665 14.0206 23.7832 14.24 22.6998 14.6102L21.7832 13.4722L15.4498 21.9452L10.4332 17.1192L4.38317 25.0849L1.6665 23.4808L9.99984 12.5125L14.9998 17.3111L21.6665 8.39937L26.1998 13.9932ZM30.5165 14.6787C29.4498 14.2948 28.2998 14.0618 27.0998 14.0069L35.6332 2.91522L38.3332 4.53305L30.5165 14.6787Z" fill="white"/>
</svg>
