<svg width="63" height="54" viewBox="0 0 63 54" fill="none" xmlns="http://www.w3.org/2000/svg">
<g clip-path="url(#clip0_1142_4291)">
<path d="M15.1779 1.11336C15.5324 0.499938 16.1849 0.119831 16.8934 0.114101L31 0L45.1066 0.1141C45.8151 0.119831 46.4676 0.499938 46.8221 1.11336L53.98 13.5L60.9579 26.0267C61.2949 26.6318 61.2949 27.3682 60.9579 27.9733L53.98 40.5L46.8221 52.8866C46.4676 53.5001 45.8151 53.8802 45.1066 53.8859L31 54L16.8934 53.8859C16.1849 53.8802 15.5324 53.5001 15.1779 52.8866L8.02002 40.5L1.04215 27.9733C0.705097 27.3682 0.705097 26.6318 1.04215 26.0267L8.02002 13.5L15.1779 1.11336Z" fill="white"/>
<path d="M24.5 19L39.5 35M39.5 35V21.6667M39.5 35H26.4565" stroke="#2863DF"/>
<path d="M24.5 19L39.5 35M39.5 35V21.6667M39.5 35H26.4565" stroke="black" stroke-opacity="0.5"/>
</g>
<defs>
<clipPath id="clip0_1142_4291">
<rect width="62" height="54" fill="white" transform="translate(0.5)"/>
</clipPath>
</defs>
</svg>
