<svg width="42" height="41" viewBox="0 0 42 41" fill="none" xmlns="http://www.w3.org/2000/svg">
<path d="M37.8674 8.84913L18.6739 28.3583L11.5415 21.115L13.9134 18.7062L18.6739 23.5408L35.4956 6.45746L37.8674 8.84913ZM34.1499 17.4591C34.3685 18.4329 34.5031 19.4579 34.5031 20.5C34.5031 28.0508 28.481 34.1666 21.0458 34.1666C13.6106 34.1666 7.58845 28.0508 7.58845 20.5C7.58845 12.9491 13.6106 6.83329 21.0458 6.83329C23.7036 6.83329 26.1596 7.61913 28.2455 8.96871L30.6678 6.50871C27.9427 4.56121 24.6288 3.41663 21.0458 3.41663C11.7602 3.41663 4.22412 11.07 4.22412 20.5C4.22412 29.93 11.7602 37.5833 21.0458 37.5833C30.3313 37.5833 37.8674 29.93 37.8674 20.5C37.8674 18.467 37.4974 16.5195 36.8581 14.7087L34.1499 17.4591Z" fill="white"/>
</svg>
