<svg width="29" height="29" viewBox="0 0 29 29" fill="none" xmlns="http://www.w3.org/2000/svg">
<path d="M7.9025 6.04167C7.975 7.11708 8.15625 8.16833 8.44625 9.17125L6.99625 10.6213C6.50083 9.17125 6.18667 7.63667 6.07792 6.04167H7.9025ZM19.8167 20.5658C20.8438 20.8558 21.895 21.0371 22.9583 21.1096V22.91C21.3633 22.8013 19.8288 22.4871 18.3667 22.0037L19.8167 20.5658ZM9.0625 3.625H4.83333C4.16875 3.625 3.625 4.16875 3.625 4.83333C3.625 16.1796 12.8204 25.375 24.1667 25.375C24.8313 25.375 25.375 24.8313 25.375 24.1667V19.9496C25.375 19.285 24.8313 18.7413 24.1667 18.7413C22.6683 18.7413 21.2063 18.4996 19.8529 18.0525C19.7321 18.0042 19.5992 17.9921 19.4783 17.9921C19.1642 17.9921 18.8621 18.1129 18.6204 18.3425L15.9621 21.0008C12.5425 19.2487 9.73917 16.4575 7.99917 13.0379L10.6575 10.3796C10.9958 10.0413 11.0925 9.57 10.9596 9.14708C10.5125 7.79375 10.2708 6.34375 10.2708 4.83333C10.2708 4.16875 9.72708 3.625 9.0625 3.625Z" fill="#CF5600"/>
</svg>
