<svg width="29" height="29" viewBox="0 0 29 29" fill="none" xmlns="http://www.w3.org/2000/svg">
<path d="M14.5003 2.4165C7.83033 2.4165 2.41699 7.82984 2.41699 14.4998C2.41699 21.1698 7.83033 26.5832 14.5003 26.5832C21.1703 26.5832 26.5837 21.1698 26.5837 14.4998C26.5837 7.82984 21.1703 2.4165 14.5003 2.4165ZM14.5003 24.1665C9.17158 24.1665 4.83366 19.8286 4.83366 14.4998C4.83366 9.17109 9.17158 4.83317 14.5003 4.83317C19.8291 4.83317 24.167 9.17109 24.167 14.4998C24.167 19.8286 19.8291 24.1665 14.5003 24.1665ZM15.5757 13.4123C13.4249 12.6994 12.3857 12.2523 12.3857 11.1165C12.3857 9.884 13.727 9.43692 14.5728 9.43692C16.1557 9.43692 16.7357 10.6332 16.8687 11.0561L18.7778 10.2465C18.5966 9.71484 17.787 7.93859 15.5637 7.55192V6.0415H13.4491V7.564C10.3074 8.24067 10.2832 11.0078 10.2832 11.1407C10.2832 13.8836 13.002 14.6569 14.3312 15.1403C16.2403 15.8169 17.0862 16.4332 17.0862 17.5932C17.0862 18.9586 15.8174 19.5386 14.6937 19.5386C12.4945 19.5386 11.8662 17.279 11.7937 17.0132L9.78783 17.8228C10.5491 20.469 12.5428 21.1819 13.437 21.3994V22.9582H15.5516V21.4598C16.1799 21.3511 19.2007 20.7469 19.2007 17.569C19.2128 15.8894 18.4757 14.4153 15.5757 13.4123Z" fill="black"/>
</svg>
