<svg width="29" height="29" viewBox="0 0 29 29" fill="none" xmlns="http://www.w3.org/2000/svg">
<path d="M14.5003 2.4165C9.82408 2.4165 6.04199 6.19859 6.04199 10.8748C6.04199 17.2186 14.5003 26.5832 14.5003 26.5832C14.5003 26.5832 22.9587 17.2186 22.9587 10.8748C22.9587 6.19859 19.1766 2.4165 14.5003 2.4165ZM8.45866 10.8748C8.45866 7.53984 11.1653 4.83317 14.5003 4.83317C17.8353 4.83317 20.542 7.53984 20.542 10.8748C20.542 14.3548 17.062 19.5628 14.5003 22.8132C11.987 19.5869 8.45866 14.3186 8.45866 10.8748Z" fill="black"/>
<path d="M14.5003 13.8957C16.1687 13.8957 17.5212 12.5432 17.5212 10.8748C17.5212 9.20648 16.1687 7.854 14.5003 7.854C12.832 7.854 11.4795 9.20648 11.4795 10.8748C11.4795 12.5432 12.832 13.8957 14.5003 13.8957Z" fill="black"/>
</svg>
