<svg width="40" height="40" viewBox="0 0 40 40" fill="none" xmlns="http://www.w3.org/2000/svg">
<path d="M16.6668 18.3333C20.3502 18.3333 23.3335 15.35 23.3335 11.6667C23.3335 7.98333 20.3502 5 16.6668 5C12.9835 5 10.0002 7.98333 10.0002 11.6667C10.0002 15.35 12.9835 18.3333 16.6668 18.3333ZM16.6668 8.33333C18.5002 8.33333 20.0002 9.83333 20.0002 11.6667C20.0002 13.5 18.5002 15 16.6668 15C14.8335 15 13.3335 13.5 13.3335 11.6667C13.3335 9.83333 14.8335 8.33333 16.6668 8.33333Z" fill="black"/>
<path d="M6.66683 28.3333C7.0335 27.1333 12.1835 25 16.6668 25C16.6668 23.8333 16.8835 22.7167 17.2502 21.6833C12.7002 21.5167 3.3335 23.7833 3.3335 28.3333V31.6667H19.2335C18.3668 30.7 17.6835 29.5833 17.2502 28.3333H6.66683Z" fill="black"/>
<path d="M32.3835 28.3667C32.9835 27.3833 33.3335 26.2333 33.3335 25C33.3335 21.3167 30.3502 18.3333 26.6668 18.3333C22.9835 18.3333 20.0002 21.3167 20.0002 25C20.0002 28.6833 22.9835 31.6667 26.6668 31.6667C27.9002 31.6667 29.0502 31.3 30.0335 30.7167C31.5835 32.2667 32.7335 33.4167 34.3168 35L36.6668 32.65C34.1668 30.15 35.3502 31.3167 32.3835 28.3667ZM26.6668 28.3333C24.8335 28.3333 23.3335 26.8333 23.3335 25C23.3335 23.1667 24.8335 21.6667 26.6668 21.6667C28.5002 21.6667 30.0002 23.1667 30.0002 25C30.0002 26.8333 28.5002 28.3333 26.6668 28.3333Z" fill="black"/>
</svg>
