<svg width="40" height="40" viewBox="0 0 40 40" fill="none" xmlns="http://www.w3.org/2000/svg">
<path d="M38.3334 19.9833L34.2667 15.3333L34.8334 9.18333L28.8167 7.81667L25.6667 2.5L20.0001 4.93333L14.3334 2.5L11.1834 7.81667L5.16675 9.16667L5.73341 15.3333L1.66675 19.9833L5.73341 24.6333L5.16675 30.8L11.1834 32.1667L14.3334 37.5L20.0001 35.05L25.6667 37.4833L28.8167 32.1667L34.8334 30.8L34.2667 24.65L38.3334 19.9833ZM31.7501 22.45L30.8167 23.5333L30.9501 24.95L31.2501 28.2L26.6834 29.2333L25.9501 30.4667L24.3001 33.2667L21.3334 31.9833L20.0001 31.4167L18.6834 31.9833L15.7167 33.2667L14.0667 30.4833L13.3334 29.25L8.76675 28.2167L9.06675 24.95L9.20008 23.5333L8.26675 22.45L6.11675 20L8.26675 17.5333L9.20008 16.45L9.05008 15.0167L8.75008 11.7833L13.3167 10.75L14.0501 9.51667L15.7001 6.71667L18.6667 8L20.0001 8.56667L21.3167 8L24.2834 6.71667L25.9334 9.51667L26.6667 10.75L31.2334 11.7833L30.9334 15.0333L30.8001 16.45L31.7334 17.5333L33.8834 19.9833L31.7501 22.45Z" fill="black"/>
<path d="M16.8167 22.9167L12.9501 19.0333L10.4834 21.5167L16.8167 27.8667L29.0501 15.6L26.5834 13.1167L16.8167 22.9167Z" fill="black"/>
</svg>
