<svg width="62" height="54" viewBox="0 0 62 54" fill="none" xmlns="http://www.w3.org/2000/svg">
<path d="M14.6779 1.11336C15.0324 0.499938 15.6849 0.119831 16.3934 0.114101L30.5 0L44.6066 0.1141C45.3151 0.119831 45.9676 0.499938 46.3221 1.11336L53.48 13.5L60.4579 26.0267C60.7949 26.6318 60.7949 27.3682 60.4579 27.9733L53.48 40.5L46.3221 52.8866C45.9676 53.5001 45.3151 53.8802 44.6066 53.8859L30.5 54L16.3934 53.8859C15.6849 53.8802 15.0324 53.5001 14.6779 52.8866L7.52002 40.5L0.542146 27.9733C0.205097 27.3682 0.205097 26.6318 0.542146 26.0267L7.52002 13.5L14.6779 1.11336Z" fill="#E68200"/>
<path d="M24 19L39 35M39 35V21.6667M39 35H25.9565" stroke="#1D1D1D"/>
</svg>
