<svg width="70" height="60" viewBox="0 0 70 60" fill="none" xmlns="http://www.w3.org/2000/svg">
<path d="M17.3527 1.35945C17.6213 0.909531 18.1051 0.632331 18.629 0.628228L35 0.500015L51.371 0.628227C51.8949 0.63233 52.3787 0.90953 52.6473 1.35945L60.9391 15.2528L60.9411 15.2562L68.9928 29.252C69.2592 29.7151 69.2592 30.2849 68.9928 30.748L60.9411 44.7438L60.9391 44.7471L52.6473 58.6405C52.3787 59.0905 51.8949 59.3677 51.371 59.3718L35 59.5L18.629 59.3718C18.1051 59.3677 17.6213 59.0905 17.3527 58.6405L9.06093 44.7472L1.00717 30.748C0.740752 30.2849 0.740752 29.7151 1.00717 29.252L9.06091 15.2528L17.3527 1.35945Z" stroke="#000000"/>
</svg>
