<svg width="66" height="58" viewBox="0 0 66 58" fill="none" xmlns="http://www.w3.org/2000/svg">
<path d="M16.359 1.36864C16.6254 0.910868 17.1136 0.627575 17.6433 0.623322L33 0.500016L48.3567 0.623322C48.8864 0.627575 49.3746 0.910868 49.641 1.36864L57.4295 14.7481L57.4315 14.7515L65.0148 28.266C65.2706 28.7219 65.2706 29.2781 65.0148 29.734L57.4315 43.2485L57.4295 43.2519L49.641 56.6314C49.3746 57.0891 48.8864 57.3724 48.3567 57.3767L33 57.5L17.6433 57.3767C17.1136 57.3724 16.6254 57.0891 16.359 56.6314L8.57054 43.2519L0.985227 29.734C0.729397 29.2781 0.729397 28.7219 0.985227 28.266L8.57054 14.7481L16.359 1.36864Z" stroke="#E68200"/>
</svg>
