<svg width="543" height="483" viewBox="0 0 543 483" fill="none" xmlns="http://www.w3.org/2000/svg">
<path d="M132.004 7.28326C134.044 3.76084 137.793 1.57892 141.863 1.54607L271.442 0.499984H271.45L401.029 1.54606C405.099 1.57892 408.848 3.76083 410.888 7.28326L476.609 120.788L476.613 120.795L540.626 235.484C542.57 238.967 542.57 243.21 540.626 246.693L476.613 361.382L476.609 361.389L410.888 474.894C408.848 478.417 405.099 480.598 401.029 480.631L271.45 481.677H271.442L141.863 480.631C137.793 480.598 134.044 478.417 132.004 474.894L66.2829 361.389L66.279 361.382L2.26628 246.693C0.321961 243.21 0.321958 238.967 2.26627 235.484L66.279 120.795L66.2829 120.788L132.004 7.28326Z" stroke="white" stroke-opacity="0.5"/>
</svg>
