<svg width="30" height="29" viewBox="0 0 30 29" fill="none" xmlns="http://www.w3.org/2000/svg">
<path d="M15.2503 2.41663C8.58033 2.41663 3.16699 7.82996 3.16699 14.5C3.16699 21.17 8.58033 26.5833 15.2503 26.5833C21.9203 26.5833 27.3337 21.17 27.3337 14.5C27.3337 7.82996 21.9203 2.41663 15.2503 2.41663ZM15.2503 24.1666C9.92158 24.1666 5.58366 19.8287 5.58366 14.5C5.58366 9.17121 9.92158 4.83329 15.2503 4.83329C20.5791 4.83329 24.917 9.17121 24.917 14.5C24.917 19.8287 20.5791 24.1666 15.2503 24.1666ZM16.3257 13.4125C14.1749 12.6995 13.1357 12.2525 13.1357 11.1166C13.1357 9.88413 14.477 9.43704 15.3228 9.43704C16.9057 9.43704 17.4857 10.6333 17.6187 11.0562L19.5278 10.2466C19.3466 9.71496 18.537 7.93871 16.3137 7.55204V6.04163H14.1991V7.56413C11.0574 8.24079 11.0332 11.0079 11.0332 11.1408C11.0332 13.8837 13.752 14.657 15.0812 15.1404C16.9903 15.817 17.8362 16.4333 17.8362 17.5933C17.8362 18.9587 16.5674 19.5387 15.4437 19.5387C13.2445 19.5387 12.6162 17.2791 12.5437 17.0133L10.5378 17.8229C11.2991 20.4691 13.2928 21.182 14.187 21.3995V22.9583H16.3016V21.46C16.9299 21.3512 19.9507 20.747 19.9507 17.5691C19.9628 15.8895 19.2257 14.4154 16.3257 13.4125Z" fill="black"/>
</svg>
