<svg width="30" height="30" viewBox="0 0 30 30" fill="none" xmlns="http://www.w3.org/2000/svg">
<path d="M8.4025 6.54167C8.475 7.61708 8.65625 8.66833 8.94625 9.67125L7.49625 11.1213C7.00083 9.67125 6.68667 8.13667 6.57792 6.54167H8.4025ZM20.3167 21.0658C21.3438 21.3558 22.395 21.5371 23.4583 21.6096V23.41C21.8633 23.3013 20.3288 22.9871 18.8667 22.5037L20.3167 21.0658ZM9.5625 4.125H5.33333C4.66875 4.125 4.125 4.66875 4.125 5.33333C4.125 16.6796 13.3204 25.875 24.6667 25.875C25.3313 25.875 25.875 25.3313 25.875 24.6667V20.4496C25.875 19.785 25.3313 19.2413 24.6667 19.2413C23.1683 19.2413 21.7063 18.9996 20.3529 18.5525C20.2321 18.5042 20.0992 18.4921 19.9783 18.4921C19.6642 18.4921 19.3621 18.6129 19.1204 18.8425L16.4621 21.5008C13.0425 19.7487 10.2392 16.9575 8.49917 13.5379L11.1575 10.8796C11.4958 10.5413 11.5925 10.07 11.4596 9.64708C11.0125 8.29375 10.7708 6.84375 10.7708 5.33333C10.7708 4.66875 10.2271 4.125 9.5625 4.125Z" fill="#CF5600"/>
</svg>
